<?xml version="1.0" standalone="no"?>
<!DOCTYPE svg PUBLIC "-//W3C//DTD SVG 20010904//EN"
 "http://www.w3.org/TR/2001/REC-SVG-20010904/DTD/svg10.dtd">
<svg version="1.0" xmlns="http://www.w3.org/2000/svg"
 width="827.000000pt" height="798.000000pt" viewBox="0 0 827.000000 798.000000"
 preserveAspectRatio="xMidYMid meet">

<g transform="translate(0.000000,798.000000) scale(0.100000,-0.100000)"
fill="#000000" stroke="none">
<path d="M0 7775 l0 -205 178 0 c97 0 600 5 1116 10 517 5 941 9 942 7 1 -1
-47 -54 -108 -117 -113 -118 -159 -174 -136 -165 7 3 23 20 35 38 30 44 349
376 396 412 40 31 46 42 23 42 -8 0 -14 -5 -13 -11 1 -6 -6 -10 -15 -10 -10 1
-14 -4 -11 -11 6 -17 -23 -32 -59 -30 -19 1 -28 -5 -32 -19 -7 -27 0 -32 19
-12 27 27 30 18 4 -11 -44 -51 -59 -55 -59 -18 0 14 -4 25 -10 25 -5 0 -10 9
-10 20 0 11 -4 20 -8 20 -4 0 -9 22 -10 48 l-2 49 48 12 c76 20 112 24 112 13
0 -6 10 -12 22 -14 12 -2 23 -9 26 -17 3 -8 0 -11 -7 -7 -6 4 -11 3 -11 -2 0
-5 10 -12 22 -16 16 -4 31 3 53 23 16 15 47 40 68 56 20 15 37 32 36 39 0 7
-2 6 -6 -1 -2 -7 -11 -13 -19 -13 -8 0 -23 -5 -34 -12 -15 -10 -23 -9 -40 7
-17 15 -35 18 -113 16 -50 -1 -107 -4 -124 -7 -22 -4 -33 -2 -33 5 0 7 -4 9
-10 6 -5 -3 -10 -21 -10 -40 0 -19 -4 -36 -10 -40 -6 -4 -6 -15 0 -31 6 -14
10 -54 10 -90 0 -36 4 -64 10 -64 19 0 10 -39 -11 -45 -29 -10 -97 4 -78 15 9
6 -15 10 -66 13 l-80 3 76 2 76 2 -7 43 c-4 23 -11 77 -15 120 -4 49 -11 77
-19 77 -6 0 -22 7 -34 16 -20 14 -61 16 -282 16 -143 0 -264 -3 -270 -7 -6 -4
-31 -1 -56 6 -35 11 -44 18 -44 36 0 21 -4 23 -59 23 -58 0 -60 -1 -63 -27 -5
-48 -78 -37 -78 11 0 14 -62 16 -610 16 l-610 0 0 -205z m2499 74 c-22 -13
-31 -11 -17 5 7 8 17 12 22 9 4 -3 2 -9 -5 -14z m-1206 -15 c3 -3 0 -15 -6
-26 -9 -16 -9 -22 1 -25 6 -3 12 -15 12 -28 0 -20 -6 -23 -55 -30 -32 -4 -62
-2 -72 4 -10 6 -12 11 -5 11 8 0 12 16 12 44 l0 45 48 4 c26 2 50 4 53 5 3 1
8 -1 12 -4z m361 -4 c31 0 31 0 28 -45 l-4 -45 -42 -2 c-35 -1 -125 0 -148 1
-5 1 -8 10 -8 20 0 11 -5 21 -12 23 -8 3 -6 11 7 25 21 22 70 33 119 27 16 -2
43 -4 60 -4z m341 -14 c15 -24 9 -72 -10 -80 -7 -2 -21 -3 -31 -1 -11 2 -22 4
-26 4 -5 1 -8 17 -8 36 0 34 -1 35 -40 35 -39 0 -40 -1 -40 -35 0 -34 -1 -35
-40 -35 -39 0 -40 1 -40 34 0 30 -4 34 -32 40 -68 14 -3 26 125 25 119 -2 130
-4 142 -23z m-477 -203 c-10 -2 -26 -2 -35 0 -10 3 -2 5 17 5 19 0 27 -2 18
-5z m99 1 c-3 -3 -12 -4 -19 -1 -8 3 -5 6 6 6 11 1 17 -2 13 -5z m60 0 c-3 -3
-12 -4 -19 -1 -8 3 -5 6 6 6 11 1 17 -2 13 -5z"/>
<path d="M2564 7959 c0 -10 6 -15 13 -12 7 3 13 9 13 13 0 5 8 11 18 13 9 2 3
4 -13 3 -21 -1 -31 -6 -31 -17z"/>
<path d="M2662 7973 c-7 -2 -17 -14 -23 -25 -10 -18 -8 -18 20 3 39 28 40 37
3 22z"/>
<path d="M3034 7917 c-107 -82 -134 -105 -230 -197 -249 -239 -417 -486 -538
-793 -73 -186 -148 -510 -145 -632 l1 -50 9 60 c22 165 33 230 60 340 85 345
233 635 461 900 132 153 257 267 453 412 17 12 26 22 20 22 -5 0 -46 -28 -91
-62z"/>
<path d="M3911 7975 c0 -20 87 -270 88 -254 1 9 -15 65 -34 124 -33 101 -55
153 -54 130z"/>
<path d="M6220 7963 c0 -17 56 -59 73 -55 5 2 6 -2 3 -7 -3 -5 11 -21 32 -37
39 -29 151 -134 210 -197 l36 -37 395 4 c603 6 1290 22 1298 29 3 4 -6 7 -20
7 -17 0 -27 5 -27 15 0 9 9 15 25 15 l25 0 0 140 0 140 -1025 0 c-970 0 -1025
-1 -1025 -17z"/>
<path d="M3330 7899 c-92 -69 -282 -260 -349 -349 -68 -91 -144 -217 -139
-231 2 -6 10 2 18 18 116 224 243 366 539 600 2 2 2 5 0 7 -2 2 -33 -18 -69
-45z"/>
<path d="M4904 7770 c116 -94 247 -252 351 -425 52 -87 145 -255 145 -264 0
-3 7 -19 16 -36 8 -16 31 -67 51 -113 20 -45 38 -81 40 -78 8 8 -113 275 -173
381 -84 149 -180 288 -264 384 -78 88 -212 211 -231 211 -5 0 24 -27 65 -60z"/>
<path d="M4000 7689 c0 -8 6 -38 14 -65 13 -46 21 -87 45 -229 17 -100 41
-350 41 -430 0 -45 4 -75 10 -75 11 0 10 38 -11 270 -12 140 -23 216 -56 385
-24 123 -42 183 -43 144z"/>
<path d="M6630 7560 c12 -16 26 -30 31 -30 5 0 -3 14 -18 30 -14 17 -28 30
-30 30 -3 0 5 -13 17 -30z"/>
<path d="M6694 7490 c71 -93 84 -109 120 -151 22 -25 33 -33 26 -19 -14 26
-69 94 -134 163 -32 35 -34 36 -12 7z"/>
<path d="M1940 7250 c-17 -22 -29 -40 -27 -40 3 0 20 18 37 40 17 22 29 40 27
40 -3 0 -20 -18 -37 -40z"/>
<path d="M6879 7248 c18 -27 35 -48 37 -48 9 0 -30 61 -50 78 -10 9 -4 -4 13
-30z"/>
<path d="M1861 7147 c-13 -21 -12 -21 5 -5 10 10 16 20 13 22 -3 3 -11 -5 -18
-17z"/>
<path d="M6959 7125 c5 -11 17 -29 26 -40 l16 -20 -10 20 c-5 11 -17 29 -26
40 l-16 20 10 -20z"/>
<path d="M1819 7083 c-13 -16 -12 -17 4 -4 16 13 21 21 13 21 -2 0 -10 -8 -17
-17z"/>
<path d="M2836 7073 c-6 -14 -5 -15 5 -6 7 7 10 15 7 18 -3 3 -9 -2 -12 -12z"/>
<path d="M2813 7038 c-6 -7 -20 -31 -31 -54 -12 -23 -37 -62 -56 -87 -20 -26
-33 -53 -30 -61 3 -8 -2 -38 -11 -67 -33 -105 -55 -194 -54 -219 0 -14 11 18
24 70 13 52 33 122 45 155 28 77 98 225 118 248 8 9 13 19 10 22 -3 3 -10 0
-15 -7z"/>
<path d="M1762 7010 c-7 -11 -9 -20 -4 -20 4 0 13 9 20 20 7 11 9 20 4 20 -4
0 -13 -9 -20 -20z"/>
<path d="M7020 7024 c0 -4 13 -28 28 -53 16 -25 36 -64 44 -86 22 -53 57 -122
58 -112 0 16 -74 182 -98 220 -24 36 -32 44 -32 31z"/>
<path d="M1730 6955 c-7 -9 -8 -15 -2 -15 5 0 12 7 16 15 3 8 4 15 2 15 -2 0
-9 -7 -16 -15z"/>
<path d="M1691 6924 c9 -11 9 -18 1 -26 -7 -7 -12 -17 -12 -22 0 -12 28 25 32
44 2 7 -5 14 -15 15 -15 3 -16 1 -6 -11z"/>
<path d="M2595 6710 c-48 -72 -85 -133 -83 -135 2 -2 43 55 91 127 48 72 85
133 83 135 -2 2 -43 -55 -91 -127z"/>
<path d="M1611 6778 c-15 -43 -8 -45 11 -3 8 19 12 35 8 35 -5 0 -13 -14 -19
-32z"/>
<path d="M7160 6735 c0 -5 5 -17 10 -25 5 -8 10 -10 10 -5 0 6 -5 17 -10 25
-5 8 -10 11 -10 5z"/>
<path d="M1566 6705 c-9 -26 -7 -32 5 -12 6 10 9 21 6 23 -2 3 -7 -2 -11 -11z"/>
<path d="M1539 6698 c-5 -9 -4 -56 1 -52 5 6 8 54 3 54 -2 0 -4 -1 -4 -2z"/>
<path d="M7180 6683 c0 -4 5 -15 10 -23 8 -13 10 -13 10 2 0 9 -4 20 -10 23
-5 3 -10 3 -10 -2z"/>
<path d="M7200 6631 c0 -6 4 -13 10 -16 6 -3 7 1 4 9 -7 18 -14 21 -14 7z"/>
<path d="M5503 6598 c2 -13 17 -77 31 -143 26 -116 46 -171 32 -90 -12 68 -58
255 -63 255 -3 0 -3 -10 0 -22z"/>
<path d="M2477 6518 c-63 -109 -197 -403 -197 -432 0 -6 21 36 46 94 56 132
130 283 161 333 14 22 22 41 20 43 -3 3 -16 -14 -30 -38z"/>
<path d="M1456 6528 c3 -5 0 -15 -6 -23 -7 -8 -8 -15 -3 -15 5 0 15 11 20 23
9 19 8 24 -3 24 -7 0 -11 -4 -8 -9z"/>
<path d="M7271 6500 c-2 -38 -4 -41 -11 -22 -5 12 -11 22 -14 22 -6 0 9 -55
19 -71 4 -6 9 -26 12 -43 2 -18 10 -55 17 -82 l12 -49 1 65 c0 36 -5 71 -11
79 -6 8 -14 44 -17 80 -5 57 -6 60 -8 21z m26 -152 c-3 -7 -5 -2 -5 12 0 14 2
19 5 13 2 -7 2 -19 0 -25z"/>
<path d="M2617 6498 c-9 -38 -20 -143 -14 -138 6 6 27 153 23 158 -2 1 -6 -7
-9 -20z"/>
<path d="M1378 6415 c4 -38 2 -46 -8 -40 -9 6 -11 4 -5 -5 4 -7 2 -16 -5 -20
-7 -4 -10 -14 -8 -21 7 -20 38 44 38 78 0 15 -4 34 -9 42 -5 8 -7 -5 -3 -34z"/>
<path d="M1410 6441 c-12 -24 -13 -34 -1 -27 9 6 22 46 15 46 -2 0 -8 -9 -14
-19z"/>
<path d="M4496 6350 c-4 -63 -6 -131 -4 -150 2 -19 7 17 12 80 4 63 6 131 4
150 -2 19 -7 -17 -12 -80z"/>
<path d="M4061 6390 c-6 -28 -11 -60 -11 -70 0 -10 -4 -29 -9 -42 -14 -35 -43
-170 -38 -175 3 -2 13 30 23 71 10 42 21 73 25 69 9 -11 29 -95 30 -130 1 -18
3 -21 6 -10 3 10 -3 59 -12 110 -13 73 -14 105 -6 156 13 78 7 92 -8 21z"/>
<path d="M3766 6398 c-21 -101 -100 -449 -115 -508 -77 -287 -166 -578 -225
-734 -14 -37 -26 -71 -26 -75 3 -47 160 422 230 684 52 192 133 536 145 613 7
43 -1 60 -9 20z"/>
<path d="M2586 6268 c-8 -102 -7 -342 2 -387 4 -18 8 80 8 218 0 138 0 251 -1
251 -1 0 -5 -37 -9 -82z"/>
<path d="M2826 6309 c-3 -18 -9 -64 -12 -103 -3 -39 -17 -108 -31 -154 -14
-46 -22 -86 -19 -89 3 -3 8 6 12 21 15 62 22 15 19 -141 l-4 -168 14 225 c7
124 18 272 24 329 10 105 9 140 -3 80z"/>
<path d="M4657 5698 c3 -343 3 -659 -2 -703 -7 -74 -8 -77 -21 -55 -7 14 -13
40 -14 58 0 17 -4 32 -10 32 -5 0 -9 3 -9 8 3 17 -2 35 -7 29 -4 -3 -16 -1
-28 5 -17 8 -16 5 7 -19 30 -33 57 -125 55 -187 -1 -32 -3 -34 -15 -18 -9 11
-8 3 3 -23 10 -22 20 -71 23 -110 5 -64 7 -54 19 100 15 202 17 1505 3 1505
-6 0 -7 -249 -4 -622z"/>
<path d="M5572 6290 c3 -19 19 -116 36 -215 53 -317 68 -470 77 -785 8 -302
-9 -533 -71 -920 -32 -204 -46 -288 -60 -357 -16 -80 -17 -100 -7 -90 3 4 10
31 14 60 5 28 15 90 24 137 9 47 20 114 25 150 6 36 22 142 36 235 37 250 53
447 54 655 0 238 -28 616 -60 800 -5 30 -14 87 -21 125 -18 113 -41 230 -46
235 -3 3 -3 -11 -1 -30z"/>
<path d="M1330 6301 c0 -5 -11 -8 -24 -7 -17 2 -23 -1 -19 -10 6 -17 23 -18
23 -2 0 6 3 9 6 5 8 -7 -18 -67 -27 -62 -3 3 -6 -9 -7 -26 -1 -38 0 -37 29 31
13 30 27 58 32 61 5 4 4 9 -2 13 -6 4 -11 3 -11 -3z"/>
<path d="M2106 6164 c-3 -43 -5 -165 -4 -273 l1 -196 8 270 c4 149 6 271 4
273 -1 1 -5 -32 -9 -74z"/>
<path d="M7320 6186 c0 -8 5 -18 10 -21 6 -3 10 1 10 9 0 8 -4 18 -10 21 -5 3
-10 -1 -10 -9z"/>
<path d="M611 6069 c-1 -144 -8 -179 -32 -179 -9 0 -24 7 -33 15 -8 9 -33 15
-60 15 -36 0 -46 -4 -51 -20 -6 -19 -7 -18 -32 7 l-27 26 -24 -29 c-16 -18
-27 -24 -30 -16 -6 19 -22 14 -22 -8 0 -15 -7 -20 -25 -20 -18 0 -25 -5 -25
-20 0 -11 -4 -20 -10 -20 -6 0 -10 58 -10 153 0 83 -5 159 -10 167 -6 10 -10
-47 -10 -169 0 -191 -14 -301 -37 -301 -7 0 -13 7 -13 15 0 11 -11 15 -40 15
l-40 0 0 -40 0 -40 -40 0 -40 0 0 -340 c0 -295 2 -340 15 -341 23 -2 28 -4 53
-17 27 -16 29 -32 2 -32 -14 0 -20 -7 -20 -21 0 -19 1 -19 16 -4 18 17 41 15
36 -4 -1 -6 11 -14 28 -18 17 -3 33 -10 36 -14 3 -5 14 -9 25 -9 18 0 19 -11
19 -420 l0 -420 -33 0 -34 0 -7 363 c-5 199 -11 389 -16 422 -7 60 -7 40 5
-507 3 -131 2 -238 -3 -238 -8 0 -16 156 -32 625 -4 139 -7 174 -8 103 -1 -59
-7 -110 -12 -113 -6 -4 -7 -13 -1 -23 5 -9 12 -122 16 -249 4 -128 8 -236 9
-240 0 -5 -14 -9 -31 -11 l-33 -3 0 189 c0 104 -3 223 -6 265 -7 75 -6 77 16
77 16 0 20 4 16 16 -3 9 -7 34 -7 57 -2 31 -3 34 -6 14 -9 -60 -23 -10 -23 84
0 54 -4 99 -9 99 -6 0 -7 -109 -3 -272 7 -300 6 -413 -3 -503 l-6 -60 49 -56
c40 -47 48 -63 50 -100 l2 -44 -50 55 -50 55 1 -392 0 -391 33 -16 c19 -9 46
-16 60 -16 22 0 26 -4 25 -22 -1 -13 -1 -39 -1 -60 2 -31 6 -38 33 -47 40 -14
76 -14 84 -1 9 14 9 302 0 329 -3 11 -4 30 0 41 6 18 13 19 86 13 59 -4 79 -3
79 6 0 9 -23 12 -85 9 l-85 -3 0 192 c0 125 4 194 11 198 5 4 55 9 110 12 l99
6 0 -60 0 -60 -86 -2 c-47 -1 -95 -6 -107 -12 -15 -6 13 -7 86 -4 l107 6 0
-48 c1 -26 3 -70 6 -98 5 -60 -2 -100 -23 -120 -8 -8 -10 -15 -4 -15 7 0 11
-109 11 -337 1 -486 9 -664 34 -688 9 -10 35 -15 70 -15 l56 0 0 -80 c0 -73 2
-81 24 -95 15 -10 40 -15 66 -13 l42 3 -1 207 -2 207 38 4 38 4 -37 1 -36 2
-4 61 c-1 33 1 64 6 70 6 6 6 9 -2 9 -10 0 -13 56 -15 320 0 84 -2 81 56 78
l52 -3 1 -93 c1 -58 6 -98 13 -105 8 -8 44 -11 105 -10 l93 1 7 -180 c3 -99 9
-185 12 -189 9 -15 124 -11 125 4 0 6 5 3 10 -8 6 -14 7 -5 4 30 -14 131 -23
364 -15 395 6 25 9 -6 11 -110 3 -139 4 -135 9 75 l5 220 28 3 c16 2 29 -2 31
-10 3 -7 7 -176 9 -375 l5 -363 -39 0 c-38 0 -39 1 -40 38 -1 20 -1 45 0 55 1
9 -3 17 -8 17 -6 0 -10 -3 -9 -7 0 -5 -2 -15 -6 -24 -4 -9 -6 -34 -4 -55 l3
-39 68 -3 67 -3 0 -75 c0 -68 2 -75 23 -83 12 -5 27 -6 34 -4 28 11 50 -16 56
-68 4 -28 11 -57 17 -64 7 -8 15 -47 20 -87 10 -88 25 -156 35 -166 4 -4 5 4
2 18 -16 71 -40 230 -57 385 -18 157 -24 795 -10 1090 20 425 21 432 10 408
-7 -17 -18 -23 -42 -23 -29 0 -48 14 -130 93 -146 141 -159 158 -164 219 -2
34 1 55 9 60 7 4 67 8 135 8 118 0 123 -1 131 -22 5 -13 23 -56 40 -97 17 -40
31 -79 31 -87 0 -7 5 -16 10 -19 6 -4 10 11 10 38 0 35 -3 44 -16 43 -12 -1
-26 26 -53 99 -20 55 -37 91 -39 80 -3 -19 -12 -20 -132 -23 -120 -3 -130 -2
-130 15 0 10 -4 23 -8 30 -4 6 -6 -70 -4 -170 2 -151 5 -184 19 -199 9 -10 20
-18 25 -18 5 0 29 -16 52 -35 24 -19 47 -35 53 -35 16 0 93 -71 93 -86 0 -17
5 -17 31 -4 14 8 19 21 19 50 0 38 2 40 31 40 24 0 30 -3 25 -16 -3 -9 -6 -27
-6 -41 0 -16 -7 -27 -20 -30 -22 -6 -26 -18 -10 -28 14 -9 12 -45 -2 -45 -9 0
-9 -3 0 -12 14 -14 17 -264 3 -272 -12 -8 -17 10 -20 69 -1 27 -3 50 -4 51 -1
1 -29 -3 -61 -8 -44 -8 -64 -8 -79 1 -15 10 -21 9 -30 -3 -19 -26 -108 -36
-303 -36 l-184 0 0 106 c0 106 0 106 23 99 12 -4 82 -10 155 -12 72 -3 132 -7
132 -9 0 -2 -5 -13 -12 -24 -21 -33 2 -36 27 -3 14 17 36 34 50 37 14 4 25 11
25 16 0 6 5 10 12 10 6 0 20 8 30 17 13 11 37 17 73 17 59 1 73 12 28 22 -46
10 -255 76 -301 96 -33 14 -47 27 -62 60 -22 50 -27 37 -5 -14 15 -37 49 -56
165 -93 30 -10 59 -21 63 -25 29 -26 -279 -41 -369 -19 l-44 11 0 181 c0 99
-3 177 -7 173 -4 -3 -6 -175 -4 -381 l3 -375 -37 0 c-22 0 -38 6 -41 15 -4 8
-12 15 -19 15 -10 0 -13 66 -14 317 -1 175 1 315 4 311 3 -3 7 -93 9 -199 7
-406 11 -412 16 -29 l5 395 22 3 c12 2 31 -6 43 -18 19 -19 21 -20 16 -3 -3
10 -6 61 -7 113 -1 73 4 110 20 159 11 35 18 68 14 74 -3 5 -2 7 4 4 5 -4 20
5 32 19 16 19 25 22 39 15 16 -8 18 -6 15 17 -4 33 17 76 40 80 9 2 31 -7 48
-19 l32 -22 -5 26 c-5 28 16 40 25 15 2 -7 2 44 -1 115 -3 90 -2 127 6 127 7
0 15 -12 19 -27 l7 -28 7 25 c4 14 7 51 8 82 1 66 17 85 26 31 3 -21 10 -54
15 -73 15 -64 11 6 -6 107 -11 66 -15 134 -12 225 2 72 1 120 -2 107 -4 -13
-10 -93 -14 -176 -3 -84 -11 -165 -17 -180 -9 -25 -11 -26 -21 -10 -5 10 -14
48 -18 85 l-9 67 1 -80 c1 -44 1 -140 0 -214 -2 -117 -4 -132 -17 -121 -9 8
-15 30 -15 57 0 25 -4 42 -10 38 -5 -3 -7 -11 -5 -18 2 -7 6 -43 9 -80 4 -50
2 -66 -6 -60 -60 36 -108 136 -108 224 0 32 -4 59 -9 59 -5 0 -6 -43 -4 -96 3
-65 2 -94 -5 -90 -6 4 -15 0 -19 -8 -10 -18 -113 -33 -140 -21 -10 5 -22 9
-28 9 -26 2 -84 159 -86 234 -1 20 -5 48 -10 62 -6 17 -7 1 -5 -50 3 -67 38
-196 67 -252 6 -10 5 -19 -1 -23 -6 -4 -10 -3 -9 2 4 22 -3 33 -19 33 -39 0
-89 81 -105 170 l-4 25 -2 -25 c-2 -35 34 -129 60 -156 14 -15 20 -31 16 -44
-3 -13 -1 -19 7 -18 6 2 11 0 11 -4 0 -7 33 -27 133 -78 46 -24 54 -40 20 -40
-13 0 -33 -3 -46 -6 -17 -5 -20 -9 -11 -20 18 -21 2 -32 -46 -32 -47 0 -61 13
-22 22 12 2 0 3 -28 0 -118 -9 -165 -17 -165 -26 0 -6 19 -7 48 -3 l47 6 0
-173 c1 -165 0 -173 -19 -178 -38 -11 -134 7 -166 30 l-32 23 26 24 c14 13 26
29 26 35 0 5 -9 0 -19 -13 -37 -45 -43 -16 -39 172 4 176 13 226 63 344 7 17
16 40 20 53 3 12 11 22 16 22 5 0 9 -10 10 -22 0 -13 9 7 19 44 16 62 38 100
57 98 4 0 11 35 15 77 3 43 11 91 17 106 12 31 -4 71 -26 63 -7 -3 -15 4 -18
16 -5 14 -10 17 -17 10 -7 -7 -4 -24 10 -54 13 -27 19 -53 15 -70 -8 -42 -18
-38 -76 31 -14 17 -37 35 -50 40 -30 12 -37 40 -47 186 l-8 110 0 -110 c0
-162 -1 -185 -10 -185 -15 0 -40 71 -51 141 -10 62 -8 180 5 258 8 48 51 131
85 164 16 15 29 33 29 40 0 11 23 27 90 65 52 28 135 42 257 42 103 0 130 -3
162 -20 21 -10 42 -16 46 -12 4 4 6 1 3 -7 -2 -8 10 -28 28 -43 18 -16 41 -44
52 -62 17 -29 18 -37 7 -53 -11 -15 -10 -22 5 -40 10 -12 20 -19 24 -16 3 4 6
-6 6 -20 0 -15 9 -43 20 -64 10 -21 21 -55 23 -76 2 -22 9 -42 16 -47 7 -4 14
-19 14 -33 3 -50 15 -11 27 88 13 97 14 127 10 230 -2 40 -4 45 -10 25 -7 -22
-8 -21 -9 11 -1 20 -8 42 -16 49 -11 9 -15 33 -16 84 0 71 -11 118 -21 100 -3
-5 -9 -48 -13 -96 -7 -87 -7 -88 -34 -88 -30 0 -71 36 -71 63 0 9 -4 17 -10
17 -5 0 -10 9 -10 20 0 15 -9 22 -30 27 -16 3 -30 12 -30 19 0 17 -42 28 -74
20 -20 -5 -27 0 -44 34 -11 22 -16 40 -11 40 5 0 9 9 9 20 0 11 -4 20 -10 20
-5 0 -10 9 -10 20 0 11 -4 20 -10 20 -5 0 -10 18 -10 40 0 22 5 40 10 40 6 0
10 9 10 20 0 13 -7 20 -19 20 -12 0 -21 8 -24 23 -2 12 -5 -30 -6 -94z m58
-1497 c-11 -2 -28 0 -37 4 -13 6 -11 9 13 13 17 4 33 2 37 -4 4 -6 -1 -11 -13
-13z m71 -3 c14 -24 7 -34 -16 -25 -9 4 -14 9 -11 13 4 3 2 12 -4 20 -9 10 -8
13 4 13 9 0 21 -9 27 -21z m-60 -24 c0 -8 5 -15 12 -15 6 0 9 -2 6 -5 -7 -8
-58 16 -58 27 0 4 9 8 20 8 11 0 20 -7 20 -15z m-10 -105 c0 -5 -9 -10 -20
-10 -11 0 -20 5 -20 10 0 6 9 10 20 10 11 0 20 -4 20 -10z m-101 -55 c-6 -6
-46 -13 -76 -14 -13 -1 -23 -5 -23 -9 0 -4 24 -5 54 -2 58 6 76 4 76 -11 0 -5
-20 -9 -44 -9 -54 0 -57 -6 -54 -113 l2 -82 3 70 c3 46 10 76 20 87 18 20 48
24 58 8 6 -9 -14 -14 -42 -11 -7 1 -13 -3 -13 -9 0 -5 5 -10 10 -10 6 0 10
-27 10 -60 0 -33 4 -60 10 -60 11 0 14 -716 3 -723 -5 -3 -20 -3 -36 0 l-27 5
0 299 c0 254 2 299 14 299 8 0 18 -4 21 -10 3 -5 11 -10 17 -10 6 0 2 10 -10
23 -12 13 -23 36 -23 53 -1 19 -3 23 -6 10 -5 -17 -7 -16 -29 9 -19 22 -24 41
-25 84 -2 79 2 175 8 184 2 4 27 7 55 7 28 0 49 -2 47 -5z m91 -55 c0 -5 -4
-10 -9 -10 -6 0 -13 5 -16 10 -3 6 1 10 9 10 9 0 16 -4 16 -10z m-561 -307 c1
-18 -1 -33 -4 -33 -5 0 -31 27 -65 67 -18 21 -11 32 23 35 35 3 44 -10 46 -69z
m141 59 c0 -15 59 -42 93 -42 19 0 55 -3 81 -6 40 -6 46 -10 46 -30 0 -24 -1
-24 -120 -24 l-120 0 0 55 c0 30 5 55 10 55 6 0 10 -4 10 -8z m995 -218 c120
-120 125 -127 125 -167 l0 -42 -124 125 c-112 113 -124 129 -129 168 -3 23 -3
42 -1 42 2 0 60 -57 129 -126z m-777 64 c-4 -41 -23 -46 -195 -50 -110 -2
-135 0 -143 12 -12 19 -13 53 -1 66 6 5 80 8 176 6 l166 -3 -3 -31z m-422 -35
c10 -65 -3 -584 -15 -614 -7 -16 -10 92 -10 319 -1 207 3 342 8 342 6 0 13
-21 17 -47z m65 -287 c4 -138 11 -288 14 -333 l7 -83 -36 0 c-22 0 -36 5 -37
13 -4 47 3 666 7 680 6 17 7 17 21 -3 12 -18 17 -74 24 -274z m377 152 l-2
-143 -6 130 c-5 122 -3 155 6 155 2 0 3 -64 2 -142z m-266 -253 c3 -192 9
-374 12 -403 l6 -53 -33 3 -32 3 -6 195 c-4 107 -10 288 -14 401 l-7 206 33
-1 34 -1 7 -350z m-82 185 c0 -40 -4 -70 -10 -70 -11 0 -13 61 -4 109 10 48
14 37 14 -39z m8 -335 c-1 -84 -1 -87 -8 -35 -5 30 -8 89 -8 130 0 65 1 70 9
35 4 -22 7 -80 7 -130z m357 13 c22 -29 42 -55 45 -58 21 -18 40 -59 40 -87 0
-38 -14 -43 -30 -12 -7 11 -26 37 -44 57 -34 39 -56 88 -56 128 0 13 1 24 3
24 2 0 21 -24 42 -52z m84 -3 c-1 -31 -6 -58 -10 -60 -4 -3 -17 10 -28 28 -11
18 -29 42 -41 52 -31 28 -25 35 30 35 l51 0 -2 -55z m785 19 c9 -23 7 -62 -3
-69 -5 -3 -81 -10 -168 -15 -222 -13 -416 -29 -432 -35 -18 -7 -40 24 -41 56
l0 26 226 7 c125 4 235 11 245 17 17 8 100 24 150 28 9 0 20 -6 23 -15z m19
-98 c3 -6 3 -24 1 -41 -2 -16 1 -32 7 -36 10 -6 32 -890 22 -915 -3 -8 -19
-14 -37 -14 l-31 0 0 462 c0 360 3 462 13 465 6 3 12 9 12 14 0 6 -5 7 -10 4
-11 -7 -195 -19 -520 -35 -107 -5 -205 -12 -217 -14 -20 -4 -23 -1 -23 28 l0
33 133 11 c181 16 250 22 412 37 167 15 233 15 238 1z m-827 -110 c14 -25 17
-86 22 -397 5 -364 5 -367 -16 -373 -11 -4 -32 -4 -46 0 l-26 6 0 427 0 426
25 -30 c14 -16 33 -43 41 -59z m484 -96 l0 -99 -37 -7 c-21 -4 -58 -8 -83 -8
l-45 -1 -3 70 c-6 136 -2 141 111 144 l57 1 0 -100z m33 -22 c10 -165 8 -436
-2 -418 -13 22 -26 530 -14 530 6 0 13 -50 16 -112z m-369 -165 c3 -148 9
-359 12 -470 l7 -203 -45 0 -45 0 -7 73 c-10 106 -10 92 -8 495 l2 372 39 0
38 0 7 -267z m143 165 c-2 -13 -4 -5 -4 17 -1 22 1 32 4 23 2 -10 2 -28 0 -40z
m-376 -201 c1 -131 -1 -240 -4 -244 -4 -3 -7 105 -7 242 0 137 2 246 5 244 2
-3 5 -112 6 -242z m859 96 c0 -82 3 -256 6 -388 5 -168 3 -237 -4 -230 -16 15
-29 765 -13 765 8 0 11 -43 11 -147z m-733 -15 c-2 -29 -3 -6 -3 52 0 58 1 81
3 53 2 -29 2 -77 0 -105z m10 -435 c-1 -43 -3 -8 -3 77 0 85 2 120 3 78 2 -43
2 -113 0 -155z m-129 -24 c-3 -8 -7 -3 -11 10 -4 17 -3 21 5 13 5 -5 8 -16 6
-23z"/>
<path d="M472 4320 c0 -14 2 -19 5 -12 2 6 2 18 0 25 -3 6 -5 1 -5 -13z"/>
<path d="M473 4180 c0 -25 2 -35 4 -22 2 12 2 32 0 45 -2 12 -4 2 -4 -23z"/>
<path d="M4475 6088 c-6 -57 -34 -230 -56 -348 -4 -25 -13 -61 -18 -80 -15
-48 -14 -58 6 -56 12 1 24 -16 41 -59 12 -33 27 -69 32 -80 20 -41 -1 28 -34
110 l-31 80 27 145 c28 152 52 339 45 347 -3 2 -8 -24 -12 -59z"/>
<path d="M7341 6119 c0 -19 5 -43 10 -54 6 -13 7 -4 3 30 -8 60 -14 72 -13 24z"/>
<path d="M996 6105 c-4 -19 -2 -43 3 -53 8 -13 10 -5 11 36 0 60 -5 67 -14 17z"/>
<path d="M1217 6113 c3 -18 1 -39 -4 -45 -9 -12 -17 -96 -9 -87 2 2 16 33 30
68 27 68 35 117 11 66 -11 -22 -13 -24 -9 -6 4 15 2 21 -4 17 -6 -3 -13 0 -15
6 -3 7 -3 -2 0 -19z"/>
<path d="M7832 6115 c0 -16 2 -22 5 -12 2 9 2 23 0 30 -3 6 -5 -1 -5 -18z"/>
<path d="M2455 6117 c-11 -7 -39 -24 -62 -39 -23 -16 -45 -28 -50 -28 -4 0
-19 -9 -33 -20 -33 -27 -3 -16 60 20 25 14 59 32 76 39 17 6 31 19 31 27 0 7
-1 14 -1 13 -1 0 -10 -6 -21 -12z"/>
<path d="M1549 6081 c-6 -17 -53 -117 -106 -223 -110 -224 -133 -280 -126
-311 3 -15 2 -18 -4 -9 -10 14 -73 -159 -73 -201 0 -13 -4 -27 -9 -33 -14 -14
-25 -104 -13 -104 32 0 70 -208 42 -225 -5 -3 -10 -15 -10 -27 0 -13 -5 -18
-15 -15 -11 5 -12 1 -5 -16 5 -12 11 -34 14 -49 8 -34 24 -36 31 -5 2 12 9 94
15 182 12 193 20 257 53 400 54 237 118 423 207 607 16 32 24 58 19 58 -6 0
-15 -13 -20 -29z m-309 -850 c0 -6 -4 -13 -10 -16 -5 -3 -10 1 -10 9 0 9 5 16
10 16 6 0 10 -4 10 -9z"/>
<path d="M3978 6033 c-21 -72 -22 -87 -8 -78 6 3 10 15 10 26 0 14 7 19 29 19
43 0 91 -20 91 -38 0 -10 5 -24 11 -32 12 -18 4 76 -10 125 -8 27 -9 27 -10 6
-1 -21 -4 -23 -32 -17 -17 3 -37 6 -45 6 -7 0 -14 10 -16 23 -2 14 -9 0 -20
-40z m99 -9 c24 -5 25 -7 10 -15 -11 -6 -31 -6 -57 1 -43 11 -46 34 -4 25 13
-3 36 -8 51 -11z"/>
<path d="M2264 6043 c-3 -16 -14 -46 -24 -68 -11 -22 -22 -53 -25 -70 -3 -16
5 -3 19 29 14 33 29 62 33 65 9 7 16 71 8 71 -2 0 -7 -12 -11 -27z"/>
<path d="M7360 6014 c0 -16 5 -36 10 -44 6 -10 7 -2 3 25 -7 49 -13 58 -13 19z"/>
<path d="M2746 5928 c-3 -13 -5 -34 -5 -48 1 -15 5 -7 10 19 9 47 6 68 -5 29z"/>
<path d="M1169 5933 c-1 -5 -3 -20 -4 -35 -2 -15 -10 -39 -18 -54 l-15 -28 2
38 c0 24 -4 41 -12 43 -9 4 -12 -5 -8 -34 2 -21 5 -44 5 -51 1 -8 6 -10 14 -6
10 6 10 4 0 -7 -7 -7 -13 -24 -13 -37 0 -13 -4 -21 -9 -17 -17 10 -21 -12 -7
-39 l14 -27 7 38 c3 21 15 65 26 98 11 33 21 71 24 83 2 12 7 27 10 32 3 6 1
10 -4 10 -6 0 -12 -3 -12 -7z"/>
<path d="M720 5915 c0 -8 9 -15 20 -15 11 0 20 7 20 15 0 8 -9 15 -20 15 -11
0 -20 -7 -20 -15z"/>
<path d="M3942 5890 c0 -14 2 -19 5 -12 2 6 2 18 0 25 -3 6 -5 1 -5 -13z"/>
<path d="M4121 5865 c0 -16 4 -73 10 -125 6 -52 15 -142 19 -200 l7 -105 1 78
c2 72 -9 193 -28 327 -4 31 -8 42 -9 25z"/>
<path d="M7390 5854 c0 -16 5 -36 10 -44 6 -10 7 -2 3 25 -7 49 -13 58 -13 19z"/>
<path d="M2195 5840 c-4 -17 -5 -34 -2 -36 2 -3 7 10 11 27 8 42 0 50 -9 9z"/>
<path d="M2727 5830 c-4 -14 -6 -38 -6 -55 1 -24 3 -21 10 15 10 49 7 80 -4
40z"/>
<path d="M3891 5742 c-86 -249 -194 -462 -303 -599 -75 -94 -179 -198 -220
-219 -29 -15 -30 -15 -23 8 4 13 18 47 31 77 13 30 22 56 20 59 -5 4 -19 -26
-57 -122 -11 -27 -31 -68 -45 -92 -30 -52 -25 -60 6 -10 11 19 49 55 83 79
174 124 348 376 466 674 46 117 85 233 79 238 -2 2 -19 -40 -37 -93z"/>
<path d="M2601 5794 c0 -11 3 -14 6 -6 3 7 2 16 -1 19 -3 4 -6 -2 -5 -13z"/>
<path d="M2173 5735 c0 -22 2 -30 4 -17 2 12 2 30 0 40 -3 9 -5 -1 -4 -23z"/>
<path d="M7024 5685 c3 -38 11 -167 16 -285 6 -118 17 -289 25 -380 13 -159
13 -161 11 -50 -6 238 -39 765 -49 775 -6 7 -7 -14 -3 -60z"/>
<path d="M8257 5593 c-4 -82 -11 -290 -17 -463 -6 -173 -17 -486 -25 -695 -8
-209 -20 -553 -25 -765 -6 -212 -15 -455 -20 -540 -13 -199 -20 -881 -9 -875
4 3 14 -4 23 -16 15 -22 76 -64 76 -53 0 4 -13 22 -30 41 -30 33 -39 76 -20
88 6 3 10 44 10 90 0 96 5 115 31 115 19 0 19 37 19 1610 0 886 -2 1610 -3
1610 -2 0 -7 -66 -10 -147z"/>
<path d="M7414 5710 c3 -14 6 -33 6 -43 0 -10 5 -15 10 -12 11 7 3 55 -13 70
-6 7 -8 2 -3 -15z"/>
<path d="M7814 5585 c0 -82 2 -115 3 -72 2 43 2 110 0 150 -1 40 -3 5 -3 -78z"/>
<path d="M700 5665 c14 -16 26 -32 28 -34 1 -2 4 -2 7 1 3 2 -10 18 -28 34
l-32 29 25 -30z"/>
<path d="M1088 5677 c-5 -10 -8 -35 -8 -55 1 -30 2 -34 11 -19 6 9 9 34 7 55
-2 28 -5 32 -10 19z"/>
<path d="M2448 5673 c-10 -2 -18 -9 -18 -14 0 -6 5 -7 11 -3 37 22 178 -13
192 -48 3 -7 6 3 6 22 1 25 -2 31 -9 20 -7 -12 -15 -11 -53 8 -41 20 -88 26
-129 15z"/>
<path d="M2699 5635 c-1 -25 -3 -49 -4 -55 -1 -5 -3 -31 -4 -56 -1 -51 -22
-58 -28 -9 -6 39 -16 48 -11 10 2 -24 -1 -30 -14 -29 -10 1 -15 -2 -12 -7 3
-5 -10 -33 -29 -61 -62 -98 -68 -108 -88 -175 -33 -106 -59 -258 -64 -372 -2
-62 -1 -90 3 -66 4 22 16 55 25 74 9 19 17 51 17 71 0 101 78 356 127 415 38
45 51 49 65 20 6 -14 17 -25 24 -25 24 0 32 -34 35 -140 3 -156 -25 -358 -63
-447 -30 -70 -53 -100 -94 -121 -32 -17 -105 25 -121 69 -9 26 -12 29 -12 12
-1 -12 9 -43 21 -67 42 -87 130 -93 191 -13 52 69 84 177 112 377 8 58 17 120
21 138 7 34 -5 156 -14 133 -7 -22 -70 100 -77 153 -7 43 -6 48 9 43 9 -4 16
-2 16 2 0 5 -5 11 -12 13 -9 3 -12 28 -10 81 2 42 1 77 -2 77 -3 0 -7 -20 -7
-45z"/>
<path d="M880 5641 c0 -6 4 -13 10 -16 6 -3 7 1 4 9 -7 18 -14 21 -14 7z"/>
<path d="M2770 5643 c0 -5 3 -13 8 -17 4 -4 12 -26 19 -49 l11 -42 0 60 c0 33
-2 54 -5 47 -4 -10 -8 -10 -19 -1 -8 6 -14 7 -14 2z"/>
<path d="M2365 5629 c-3 -4 2 -6 10 -5 21 3 28 13 10 13 -9 0 -18 -4 -20 -8z"/>
<path d="M7433 5605 c0 -22 2 -30 4 -17 2 12 2 30 0 40 -3 9 -5 -1 -4 -23z"/>
<path d="M745 5610 c3 -5 8 -10 11 -10 2 0 4 5 4 10 0 6 -5 10 -11 10 -5 0 -7
-4 -4 -10z"/>
<path d="M2324 5598 c-12 -14 -13 -18 -3 -10 9 6 18 10 21 7 2 -3 5 2 5 10 0
19 0 19 -23 -7z"/>
<path d="M2140 5594 c0 -14 -2 -16 -9 -5 -6 9 -10 2 -13 -23 -7 -58 18 -67 26
-9 3 25 4 49 1 51 -3 3 -5 -3 -5 -14z"/>
<path d="M578 5531 l-3 -72 30 7 c43 9 47 16 30 55 l-15 34 3 -30 c4 -53 -18
-40 -26 15 -4 30 -9 55 -11 58 -3 2 -6 -28 -8 -67z"/>
<path d="M720 5594 c0 -5 6 -19 14 -30 10 -13 11 -23 4 -31 -7 -9 -7 -13 0
-13 21 0 22 19 2 52 -11 18 -20 28 -20 22z"/>
<path d="M522 5570 c0 -14 2 -19 5 -12 2 6 2 18 0 25 -3 6 -5 1 -5 -13z"/>
<path d="M765 5580 c3 -5 11 -10 16 -10 6 0 7 5 4 10 -3 6 -11 10 -16 10 -6 0
-7 -4 -4 -10z"/>
<path d="M867 5574 c3 -7 9 -14 14 -14 14 0 10 17 -5 23 -10 4 -13 1 -9 -9z"/>
<path d="M4338 5446 c-26 -76 -43 -135 -38 -130 16 16 94 249 88 263 -2 3 -24
-56 -50 -133z"/>
<path d="M2185 5570 c3 -5 13 -10 21 -10 8 0 12 5 9 10 -3 6 -13 10 -21 10 -8
0 -12 -4 -9 -10z"/>
<path d="M790 5550 c0 -5 5 -10 10 -10 6 0 10 5 10 10 0 6 -4 10 -10 10 -5 0
-10 -4 -10 -10z"/>
<path d="M2258 5553 c7 -3 16 -2 19 1 4 3 -2 6 -13 5 -11 0 -14 -3 -6 -6z"/>
<path d="M511 5424 c1 -65 5 -132 9 -149 3 -16 5 35 2 115 -2 80 -6 147 -8
149 -2 2 -3 -49 -3 -115z"/>
<path d="M2450 5533 c-88 -30 -148 -82 -191 -165 -39 -77 -69 -191 -68 -258
l2 -55 8 68 c8 72 37 172 71 245 44 92 130 151 233 160 48 3 63 1 74 -12 7 -9
19 -16 25 -16 6 0 0 9 -14 20 -24 19 -102 26 -140 13z"/>
<path d="M670 5500 c-8 -5 -10 -10 -5 -10 6 0 17 5 25 10 8 5 11 10 5 10 -5 0
-17 -5 -25 -10z"/>
<path d="M910 5503 c0 -7 -7 -10 -15 -7 -8 4 -15 1 -15 -6 0 -6 -4 -9 -8 -6
-4 2 -14 1 -22 -5 -13 -7 -13 -9 0 -10 8 -1 19 -1 24 0 4 1 14 -3 21 -9 9 -8
15 -8 20 0 3 6 11 8 16 5 14 -9 11 9 -6 31 -8 10 -15 14 -15 7z"/>
<path d="M2100 5480 c0 -8 -3 -32 -6 -52 -5 -30 -3 -38 8 -38 11 0 14 11 14
43 l-1 42 40 3 c61 5 61 17 0 17 -42 0 -55 -4 -55 -15z"/>
<path d="M2740 5489 c0 -3 7 -20 15 -37 9 -16 16 -46 17 -66 1 -34 18 -53 18
-20 0 26 25 9 31 -22 5 -21 7 -23 8 -8 2 43 -11 84 -28 84 -9 0 -26 17 -38 38
-12 20 -22 34 -23 31z"/>
<path d="M7452 5445 c0 -16 2 -22 5 -12 2 9 2 23 0 30 -3 6 -5 -1 -5 -18z"/>
<path d="M1666 5363 c-11 -54 -22 -118 -26 -143 -4 -25 -15 -85 -25 -135 -53
-286 -135 -865 -122 -865 3 0 10 39 16 88 11 84 20 147 41 297 14 98 59 381
70 435 5 25 13 72 19 105 13 75 50 263 58 293 3 12 1 22 -4 22 -5 0 -17 -44
-27 -97z"/>
<path d="M2811 5444 c0 -11 3 -14 6 -6 3 7 2 16 -1 19 -3 4 -6 -2 -5 -13z"/>
<path d="M645 5429 c-28 -7 -47 -19 -62 -42 -26 -38 -28 -47 -10 -47 6 0 19
13 28 28 9 16 32 36 52 46 21 9 37 19 37 21 0 3 -1 5 -2 4 -2 -1 -21 -5 -43
-10z"/>
<path d="M903 5427 c3 -8 -1 -21 -9 -27 -20 -17 -18 -26 6 -26 15 0 20 7 20
28 0 15 -5 30 -12 34 -7 5 -9 2 -5 -9z"/>
<path d="M4490 5430 c0 -8 5 -22 10 -30 9 -13 10 -13 10 0 0 8 -5 22 -10 30
-9 13 -10 13 -10 0z"/>
<path d="M4090 5389 c-36 -4 -83 -12 -105 -18 -38 -10 -38 -10 -5 -6 19 3 68
8 108 11 39 4 72 11 72 15 0 5 -1 8 -2 8 -2 -1 -32 -5 -68 -10z"/>
<path d="M367 5383 c-4 -3 -6 -25 -6 -47 l2 -41 7 45 c8 48 7 54 -3 43z"/>
<path d="M650 5335 c0 -35 -4 -55 -12 -55 -6 0 -26 -11 -44 -25 -18 -14 -39
-25 -47 -25 -8 0 -17 -9 -20 -20 -7 -27 -33 -25 -40 2 -4 12 -9 20 -12 16 -3
-3 -1 -17 5 -32 7 -18 7 -33 0 -46 -5 -10 -10 -20 -10 -22 0 -2 31 27 69 63
61 58 142 107 167 99 4 -1 10 3 14 10 4 6 59 13 143 17 75 3 134 10 131 15 -3
4 -16 5 -28 2 -13 -3 -29 0 -37 8 -19 18 -49 19 -49 2 0 -8 -10 -14 -22 -14
-13 0 -47 -3 -75 -6 -49 -6 -53 -5 -53 13 0 27 -23 46 -37 32 -13 -13 -36 -2
-28 12 4 5 1 9 -4 9 -7 0 -11 -23 -11 -55z m67 10 c0 -8 -9 -15 -20 -15 -16 0
-17 3 -7 15 7 8 16 15 20 15 3 0 7 -7 7 -15z"/>
<path d="M7462 5360 c0 -19 2 -27 5 -17 2 9 2 25 0 35 -3 9 -5 1 -5 -18z"/>
<path d="M2125 5358 c4 -23 2 -28 -14 -28 -12 0 -21 8 -24 23 -2 13 -5 5 -6
-18 -1 -22 -3 -58 -6 -80 -4 -31 -3 -34 4 -14 14 42 31 70 40 64 19 -11 28 20
14 50 -14 30 -14 30 -8 3z"/>
<path d="M4511 5374 c-1 -15 30 -106 35 -101 2 2 -5 28 -15 58 -11 30 -20 49
-20 43z"/>
<path d="M3882 5350 c-18 -4 -36 -11 -40 -15 -9 -9 58 4 78 16 18 10 7 10 -38
-1z"/>
<path d="M3200 5060 c0 -150 3 -270 6 -267 9 9 9 525 1 534 -4 3 -7 -117 -7
-267z"/>
<path d="M3885 5261 c4 -13 0 -23 -12 -30 -10 -6 -14 -11 -9 -11 6 0 19 9 31
20 18 17 39 21 117 24 118 6 138 1 138 -30 0 -22 -4 -24 -49 -24 -27 0 -83 -7
-123 -16 -40 -9 -81 -17 -90 -17 -10 -1 -18 -4 -18 -8 0 -3 -17 -11 -37 -18
-21 -7 -45 -15 -53 -18 -9 -3 -4 7 10 23 23 27 23 27 2 9 -89 -74 -127 -122
-67 -82 37 24 162 76 223 92 34 8 95 16 137 16 l75 1 0 44 0 44 -141 0 c-134
0 -140 -1 -134 -19z"/>
<path d="M371 5248 c-1 -16 -5 -28 -11 -28 -5 0 -10 -5 -10 -11 0 -5 5 -7 10
-4 6 3 10 -2 11 -12 0 -15 2 -14 9 4 5 12 5 34 0 50 l-8 28 -1 -27z"/>
<path d="M2141 5143 c3 -128 18 -226 38 -246 17 -17 13 54 -4 73 -11 12 -14
49 -16 158 0 86 -5 142 -11 142 -6 0 -9 -48 -7 -127z"/>
<path d="M4256 5235 c-8 -22 -20 -47 -26 -55 -5 -8 -17 -28 -25 -45 l-16 -30
21 25 c12 14 28 39 36 57 7 18 20 36 28 40 8 5 11 15 6 28 -6 17 -10 15 -24
-20z"/>
<path d="M3785 5250 c-13 -5 -14 -9 -5 -9 8 0 24 4 35 9 13 5 14 9 5 9 -8 0
-24 -4 -35 -9z"/>
<path d="M7483 5155 c0 -44 2 -61 4 -37 2 23 2 59 0 80 -2 20 -4 1 -4 -43z"/>
<path d="M3835 5210 c-3 -5 -1 -10 4 -10 6 0 11 5 11 10 0 6 -2 10 -4 10 -3 0
-8 -4 -11 -10z"/>
<path d="M4561 5204 c0 -11 3 -14 6 -6 3 7 2 16 -1 19 -3 4 -6 -2 -5 -13z"/>
<path d="M2056 5055 c-8 -124 -2 -368 12 -465 6 -41 5 493 -1 565 -2 17 -6
-28 -11 -100z"/>
<path d="M4152 5111 l-2 -74 20 26 c23 29 26 45 6 27 -13 -10 -15 -3 -19 42
-3 46 -4 43 -5 -21z"/>
<path d="M4293 5144 c26 -13 47 -28 47 -32 0 -4 -23 -16 -51 -26 -105 -37
-200 -158 -251 -319 -23 -76 -28 -109 -28 -195 0 -58 5 -123 12 -146 24 -87
87 -139 186 -152 74 -10 114 1 181 51 51 38 65 56 100 127 63 129 82 217 76
360 l-4 120 -39 43 c-53 56 -133 130 -152 138 -8 4 -33 18 -55 32 -22 13 -47
24 -55 24 -8 0 6 -11 33 -25z m141 -108 c51 -39 85 -170 86 -329 0 -75 -17
-160 -31 -151 -5 3 -9 -8 -9 -25 0 -16 -5 -42 -11 -58 -12 -34 -103 -129 -144
-151 -42 -22 -155 -22 -186 1 -13 10 -38 27 -56 38 -18 11 -38 37 -47 60 -20
49 -21 133 -2 162 14 21 27 64 47 156 14 68 74 183 115 222 20 18 45 42 55 51
53 50 136 61 183 24z"/>
<path d="M4300 4823 c-69 -29 -107 -186 -59 -247 59 -75 164 11 176 143 4 45
2 61 -13 79 -19 23 -76 37 -104 25z"/>
<path d="M1181 5097 c-14 -79 -14 -77 3 -77 8 0 17 -6 19 -12 8 -18 27 11 27
40 0 19 -3 21 -18 13 -17 -9 -18 -6 -14 45 6 73 -3 68 -17 -9z"/>
<path d="M2626 5130 c-31 -37 -46 -88 -46 -157 0 -42 4 -55 21 -67 20 -14 24
-13 51 14 35 36 48 76 48 151 0 41 -5 60 -18 72 -24 22 -26 22 -56 -13z"/>
<path d="M302 5138 c2 -6 10 -14 16 -16 7 -2 10 2 6 12 -7 18 -28 22 -22 4z"/>
<path d="M752 5118 c-28 -91 -40 -334 -18 -355 3 -4 6 -18 6 -32 0 -14 5 -33
11 -41 7 -11 9 -3 5 30 -16 129 -18 197 -6 286 6 54 16 108 21 121 5 13 5 23
0 23 -5 0 -14 -15 -19 -32z"/>
<path d="M7502 5100 c0 -14 2 -19 5 -12 2 6 2 18 0 25 -3 6 -5 1 -5 -13z"/>
<path d="M450 5099 c0 -5 5 -7 10 -4 6 3 10 8 10 11 0 2 -4 4 -10 4 -5 0 -10
-5 -10 -11z"/>
<path d="M2862 5085 c0 -16 2 -22 5 -12 2 9 2 23 0 30 -3 6 -5 -1 -5 -18z"/>
<path d="M1831 4953 c25 -139 75 -313 111 -393 37 -80 58 -133 58 -146 0 -7 6
-17 13 -21 7 -4 25 -29 40 -55 16 -27 30 -48 33 -48 6 0 -33 75 -51 100 -35
47 -118 260 -155 396 -17 61 -60 282 -60 306 0 4 -4 8 -8 8 -5 0 4 -66 19
-147z"/>
<path d="M7785 4998 c-4 -46 -9 -148 -11 -228 -2 -80 -5 -161 -7 -180 -2 -19
-4 -68 -5 -107 -2 -54 -6 -73 -16 -73 -17 0 -28 -105 -26 -242 2 -93 1 -98
-19 -98 -19 0 -21 6 -21 55 0 54 0 55 -30 55 -23 0 -30 -4 -30 -20 0 -11 -4
-20 -10 -20 -5 0 -10 -9 -10 -20 0 -13 -7 -20 -20 -20 -15 0 -20 7 -20 29 0
16 6 31 13 34 6 2 8 8 4 13 -4 5 -12 3 -16 -4 -4 -7 -15 -10 -24 -6 -13 5 -17
0 -17 -19 0 -14 6 -28 13 -30 6 -3 -3 -3 -20 0 -27 5 -33 2 -34 -13 -1 -11 -4
-3 -8 16 -3 19 -3 37 1 38 10 5 10 89 1 122 -5 17 -11 -9 -19 -85 -7 -60 -19
-159 -29 -220 -9 -60 -16 -135 -17 -165 0 -40 -2 -48 -7 -30 -7 22 -9 19 -13
-20 -3 -25 -20 -94 -37 -154 -19 -63 -31 -127 -30 -152 2 -24 0 -47 -4 -50 -4
-4 -7 0 -7 10 0 9 -4 14 -10 11 -5 -3 -10 -17 -10 -29 0 -13 -9 -35 -20 -49
-24 -31 -24 -30 -1 -130 11 -45 23 -104 27 -132 6 -42 8 -46 14 -25 5 17 7 4
7 -37 1 -56 7 -91 33 -203 5 -19 11 -55 15 -79 5 -30 10 -39 16 -30 7 11 9 9
9 -6 0 -17 2 -17 10 -5 7 11 10 12 10 2 0 -19 25 -42 46 -42 10 0 27 -9 38
-19 12 -11 53 -36 91 -57 39 -21 72 -41 75 -44 11 -15 92 -61 98 -56 3 4 -2
12 -12 19 -17 12 -17 28 -7 273 6 142 16 421 21 619 6 198 15 502 21 675 13
425 23 1010 17 1010 -3 0 -9 -37 -13 -82z m-150 -963 c35 -34 32 -55 -5 -55
-28 0 -30 2 -30 40 0 22 2 40 5 40 3 0 17 -11 30 -25z m-215 -330 c-13 -39
-30 -47 -30 -12 0 17 2 19 9 8 7 -11 11 -4 17 25 4 21 9 33 11 27 3 -7 -1 -29
-7 -48z m-33 -82 c-3 -10 -5 -4 -5 12 0 17 2 24 5 18 2 -7 2 -21 0 -30z m243
-73 c0 -27 -4 -50 -9 -50 -7 0 -41 75 -41 93 0 4 11 7 25 7 23 0 25 -3 25 -50z
m-310 -431 c0 -6 -4 -7 -10 -4 -5 3 -10 11 -10 16 0 6 5 7 10 4 6 -3 10 -11
10 -16z m76 -331 c4 -7 3 -8 -4 -4 -7 4 -12 0 -12 -10 0 -10 -3 -15 -6 -11 -7
6 2 37 10 37 3 0 8 -5 12 -12z m21 -40 c-3 -7 -5 -2 -5 12 0 14 2 19 5 13 2
-7 2 -19 0 -25z m-20 0 c-3 -8 -6 -5 -6 6 -1 11 2 17 5 13 3 -3 4 -12 1 -19z"/>
<path d="M2882 4995 c0 -11 3 -29 8 -40 11 -25 11 1 0 35 -6 20 -8 21 -8 5z"/>
<path d="M1160 4954 c0 -26 3 -44 7 -40 11 11 13 75 2 81 -5 4 -9 -14 -9 -41z"/>
<path d="M7498 4873 c-2 -71 -2 -159 0 -196 1 -41 -2 -66 -7 -62 -6 3 -11 -44
-13 -119 -2 -84 0 -122 7 -115 6 5 11 49 12 97 1 48 4 185 8 305 4 119 4 217
1 217 -3 0 -7 -57 -8 -127z"/>
<path d="M2910 4899 c0 -7 23 -64 48 -119 25 -54 83 -152 109 -185 54 -66 127
-145 135 -145 5 0 -14 24 -43 53 -66 67 -149 193 -204 310 -24 50 -44 89 -45
86z"/>
<path d="M4580 4891 c0 -6 4 -13 10 -16 6 -3 7 1 4 9 -7 18 -14 21 -14 7z"/>
<path d="M7087 4705 c3 -77 9 -153 14 -170 9 -34 1 177 -11 259 -4 28 -5 -12
-3 -89z"/>
<path d="M1137 4791 c-4 -18 -6 -66 -6 -105 l2 -71 8 80 c5 44 8 91 6 105 -2
22 -3 21 -10 -9z"/>
<path d="M3248 4770 c-7 -11 -18 -20 -25 -20 -7 0 -13 -6 -13 -14 0 -30 16
-23 38 15 23 40 23 56 0 19z"/>
<path d="M2193 4745 c-29 -28 -30 -45 -2 -19 20 18 21 18 35 -1 19 -26 18 -35
-8 -63 l-23 -25 32 18 31 18 -15 41 c-21 54 -24 56 -50 31z"/>
<path d="M1062 4745 c0 -11 4 -31 8 -45 6 -20 8 -21 8 -5 0 11 -4 31 -8 45 -6
20 -8 21 -8 5z"/>
<path d="M1270 4702 c0 -30 -4 -42 -14 -42 -8 0 -18 -5 -22 -12 -5 -8 0 -9 14
-6 20 6 22 2 22 -35 0 -23 5 -49 11 -57 7 -11 8 15 3 85 -7 104 -14 138 -14
67z"/>
<path d="M650 4695 c-7 -9 -11 -17 -9 -20 3 -2 10 5 17 15 14 24 10 26 -8 5z"/>
<path d="M3221 4664 c0 -11 3 -14 6 -6 3 7 2 16 -1 19 -3 4 -6 -2 -5 -13z"/>
<path d="M1081 4654 c0 -11 3 -14 6 -6 3 7 2 16 -1 19 -3 4 -6 -2 -5 -13z"/>
<path d="M3233 4605 c0 -22 2 -30 4 -17 2 12 2 30 0 40 -3 9 -5 -1 -4 -23z"/>
<path d="M322 4545 c0 -49 3 -101 7 -115 4 -14 6 22 4 80 -6 133 -11 152 -11
35z"/>
<path d="M4629 4548 c-4 -47 -14 -101 -23 -119 -9 -18 -12 -35 -7 -38 5 -3 11
-20 14 -36 3 -22 4 -18 6 16 0 25 6 60 11 76 6 16 10 66 8 109 l-3 79 -6 -87z"/>
<path d="M1141 4573 c-1 -41 -15 -58 -24 -30 -2 6 -2 0 0 -15 4 -26 2 -28 -32
-28 -48 0 -60 -14 -69 -78 -5 -41 -4 -52 7 -52 18 0 36 -41 44 -97 3 -24 9
-46 13 -48 5 -3 6 3 3 13 -4 17 3 19 84 20 50 1 89 6 91 12 5 15 29 12 36 -5
4 -13 10 -14 26 -5 17 9 20 8 20 -9 0 -11 5 -23 11 -27 7 -4 9 0 6 12 -16 55
-30 114 -42 186 -16 91 -29 116 -23 48 l3 -45 -60 0 -60 0 -3 32 c-2 19 2 33
10 36 7 2 5 3 -4 2 -17 -3 -21 9 -31 90 -3 22 -4 19 -6 -12z m5 -118 c8 -34 4
-38 -61 -43 -50 -4 -55 -3 -55 16 0 43 10 52 61 52 44 0 49 -3 55 -25z m157
-52 c3 -5 8 -22 11 -39 l7 -32 -93 -2 c-51 0 -108 -3 -126 -5 -28 -4 -34 -1
-42 21 -19 49 -15 54 50 54 43 0 60 -4 60 -13 0 -7 7 -22 16 -33 14 -18 15
-17 9 19 l-6 37 55 0 c30 0 57 -3 59 -7z"/>
<path d="M3240 4547 c0 -7 7 -39 15 -70 19 -74 19 -72 -10 -53 -42 27 -28 9
21 -29 53 -39 80 -47 41 -11 -18 17 -30 45 -42 100 -16 71 -25 94 -25 63z"/>
<path d="M1237 4524 c-15 -13 -24 -24 -20 -24 11 1 57 40 52 44 -2 3 -17 -7
-32 -20z"/>
<path d="M2083 4505 c0 -22 2 -30 4 -17 2 12 2 30 0 40 -3 9 -5 -1 -4 -23z"/>
<path d="M7500 4524 c0 -10 5 -26 10 -34 8 -11 9 -7 4 15 -8 37 -14 45 -14 19z"/>
<path d="M4861 4495 c-4 -46 -47 -275 -72 -380 -16 -71 -43 -188 -60 -260 -36
-154 -47 -196 -105 -379 -24 -77 -42 -142 -39 -144 2 -3 7 1 9 9 103 301 188
634 245 957 6 34 16 89 22 121 6 32 9 65 6 73 -3 7 -6 9 -6 3z"/>
<path d="M7111 4437 c0 -37 6 -125 14 -195 8 -70 17 -143 19 -162 2 -19 2 10
-1 65 -2 55 -10 159 -17 230 -11 111 -13 120 -15 62z"/>
<path d="M2096 4410 c3 -25 10 -52 15 -60 10 -19 -1 57 -13 85 -5 13 -6 4 -2
-25z"/>
<path d="M883 4388 c20 -19 79 -38 112 -37 11 0 -8 8 -42 18 -34 10 -68 22
-76 27 -7 5 -4 1 6 -8z"/>
<path d="M1991 4275 c-1 -131 22 -359 44 -431 21 -70 100 -252 119 -273 8 -9
19 -28 25 -44 6 -15 15 -27 20 -27 6 0 -8 31 -30 69 -50 88 -113 238 -134 321
-8 36 -22 162 -29 280 -12 188 -14 201 -15 105z"/>
<path d="M350 4348 c0 -7 -14 -42 -30 -77 -40 -84 -33 -88 8 -6 35 68 49 73
72 29 7 -13 15 -22 18 -19 8 8 -48 85 -62 85 -3 0 -6 -6 -6 -12z"/>
<path d="M2124 4298 c2 -13 8 -32 12 -42 5 -14 4 -17 -4 -12 -22 13 -12 -12
26 -68 44 -66 60 -74 27 -13 -13 23 -31 68 -40 100 -16 56 -29 78 -21 35z"/>
<path d="M4601 4304 c0 -11 3 -14 6 -6 3 7 2 16 -1 19 -3 4 -6 -2 -5 -13z"/>
<path d="M869 4283 c-13 -15 -12 -15 8 -5 28 16 65 15 83 0 12 -11 12 -10 1 5
-17 22 -74 23 -92 0z"/>
<path d="M2096 4267 c3 -10 9 -15 12 -12 3 3 0 11 -7 18 -10 9 -11 8 -5 -6z"/>
<path d="M974 4244 c14 -34 28 -86 41 -158 7 -39 13 -58 14 -42 1 40 -38 204
-52 213 -7 4 -8 0 -3 -13z"/>
<path d="M2630 4231 c0 -17 5 -33 10 -36 6 -4 10 8 10 29 0 20 -4 36 -10 36
-5 0 -10 -13 -10 -29z"/>
<path d="M7540 4240 c0 -11 5 -20 10 -20 6 0 10 9 10 20 0 11 -4 20 -10 20 -5
0 -10 -9 -10 -20z"/>
<path d="M7620 4240 c0 -16 7 -20 30 -20 23 0 30 4 30 20 0 16 -7 20 -30 20
-23 0 -30 -4 -30 -20z"/>
<path d="M7910 4220 c0 -22 5 -40 10 -40 6 0 10 18 10 40 0 22 -4 40 -10 40
-5 0 -10 -18 -10 -40z"/>
<path d="M817 4243 c-21 -20 10 -271 42 -343 l11 -25 -4 25 c-3 14 -13 57 -22
95 -9 39 -17 112 -18 162 -1 51 -1 93 -2 93 0 0 -4 -3 -7 -7z"/>
<path d="M4585 4185 c-4 -37 -5 -69 -2 -71 2 -3 8 25 12 61 4 37 5 69 2 71 -2
3 -8 -25 -12 -61z"/>
<path d="M6671 4220 c-1 -23 36 -230 43 -237 8 -9 8 3 -4 67 -18 99 -38 185
-39 170z"/>
<path d="M4418 4204 c-29 -15 -37 -47 -16 -60 8 -5 9 0 5 15 -7 30 21 41 40
15 13 -17 14 -17 7 11 -4 17 -7 31 -8 32 -1 1 -13 -5 -28 -13z"/>
<path d="M1483 4150 c0 -36 2 -50 4 -32 2 17 2 47 0 65 -2 17 -4 3 -4 -33z"/>
<path d="M4233 4143 c9 -2 25 -2 35 0 9 3 1 5 -18 5 -19 0 -27 -2 -17 -5z"/>
<path d="M7902 4043 c-6 -54 -11 -228 -10 -388 0 -243 -3 -299 -17 -347 -9
-32 -21 -58 -26 -58 -5 0 -9 -16 -9 -35 0 -28 4 -35 20 -35 17 0 20 -7 20 -40
0 -22 -4 -40 -10 -40 -5 0 -10 -18 -10 -40 0 -38 2 -40 30 -40 28 0 30 -2 30
-40 0 -38 -2 -40 -30 -40 -16 0 -30 -4 -30 -10 0 -5 14 -10 30 -10 23 0 30 -4
30 -20 0 -16 7 -20 36 -20 38 0 64 18 64 44 0 9 5 16 10 16 6 0 10 33 10 80 0
54 4 80 12 80 11 0 6 166 -9 253 -6 41 -23 33 -23 -11 0 -16 -4 -21 -12 -15
-19 11 -39 13 -32 2 3 -5 0 -9 -5 -9 -6 0 -11 -7 -11 -15 0 -8 -4 -15 -8 -15
-21 0 -32 139 -31 400 0 151 3 292 6 313 l5 37 19 -22 18 -23 1 35 c0 19 -3
52 -6 73 -5 30 -11 37 -29 37 -20 0 -23 -7 -33 -97z m58 -983 c0 -33 -3 -40
-20 -40 -17 0 -20 7 -20 40 0 33 3 40 20 40 17 0 20 -7 20 -40z"/>
<path d="M4565 4047 c-4 -30 -5 -63 -3 -73 2 -11 8 12 12 49 4 38 5 71 3 74
-3 2 -8 -20 -12 -50z"/>
<path d="M7156 3960 c2 -41 9 -111 14 -155 5 -44 13 -107 16 -140 4 -33 9 -54
12 -46 5 14 -24 297 -38 371 -7 37 -8 31 -4 -30z"/>
<path d="M1045 3931 c2 -30 10 -59 16 -65 8 -8 10 -5 5 10 -4 12 -11 42 -16
65 l-9 44 4 -54z"/>
<path d="M6721 3951 c-1 -13 10 -80 24 -150 13 -69 29 -148 34 -176 42 -218
69 -340 70 -317 1 20 -21 138 -98 522 -16 80 -29 134 -30 121z"/>
<path d="M4545 3895 c-4 -31 -5 -58 -3 -61 3 -2 8 21 12 52 4 31 5 59 2 61 -2
3 -8 -21 -11 -52z"/>
<path d="M5532 3875 c0 -16 2 -22 5 -12 2 9 2 23 0 30 -3 6 -5 -1 -5 -18z"/>
<path d="M1453 3855 c0 -22 2 -30 4 -17 2 12 2 30 0 40 -3 9 -5 -1 -4 -23z"/>
<path d="M5511 3783 c-78 -359 -146 -603 -214 -763 -32 -78 -160 -335 -200
-405 -149 -260 -323 -406 -553 -465 -98 -25 -176 -25 -295 0 -142 31 -245 42
-454 49 l-190 6 33 20 c19 11 41 26 50 33 16 11 16 12 0 6 -16 -6 -18 4 -18
107 0 65 -7 144 -16 184 -28 129 -28 133 -8 138 11 3 -1 5 -25 6 -38 1 -42 -1
-28 -11 36 -28 67 -177 67 -327 0 -112 0 -112 -62 -146 -15 -8 -78 -24 -140
-34 -271 -46 -352 -74 -487 -168 -46 -32 -66 -41 -71 -33 -4 7 -13 65 -19 129
-6 64 -16 161 -21 216 -6 55 -10 129 -11 165 0 36 -5 74 -10 85 -16 36 4 -299
32 -513 14 -111 12 -133 -11 -139 -11 -3 -20 -9 -20 -13 0 -4 -16 -25 -35 -46
-19 -22 -35 -42 -35 -47 0 -4 -11 -5 -23 -3 -15 3 -24 -1 -24 -9 0 -8 3 -14 6
-13 19 2 17 -7 -15 -54 -18 -29 -58 -99 -86 -155 -29 -57 -56 -103 -61 -103
-9 0 -18 22 -47 115 -12 38 -25 74 -29 80 -15 19 -59 170 -81 275 -20 94 -23
135 -23 385 l0 280 44 0 c24 0 47 -4 51 -10 4 -5 8 -129 9 -275 1 -146 5 -294
9 -330 5 -41 8 48 8 235 0 165 5 322 10 349 9 43 8 49 -8 53 -14 4 -18 21 -23
111 -4 62 -2 108 3 110 5 2 7 18 4 35 -3 26 -2 28 5 12 9 -19 10 -19 10 -1 1
11 -4 59 -10 108 -7 49 -9 91 -6 95 4 3 14 0 24 -8 10 -8 4 2 -12 21 l-30 35
-5 -235 -5 -235 -24 -3 c-34 -5 -62 4 -94 31 -23 21 -29 37 -38 103 -9 75 -5
355 7 454 l6 45 70 -75 c68 -72 68 -65 1 10 -17 19 -48 56 -68 83 -32 42 -57
65 -39 35 4 -7 8 -186 9 -398 1 -341 4 -405 24 -555 37 -270 61 -408 101 -575
10 -42 90 -268 113 -324 10 -21 17 -49 17 -63 0 -33 -37 -103 -55 -103 -30 0
-156 319 -232 590 -41 147 -53 180 -63 180 -7 0 9 -57 85 -311 14 -47 28 -130
34 -210 15 -179 28 -277 52 -380 16 -73 17 -90 6 -120 -22 -60 -117 -239 -126
-239 -5 0 -12 -15 -16 -32 -9 -43 -62 -152 -83 -171 -17 -14 -133 -29 -377
-48 -71 -6 -173 -14 -225 -19 -52 -5 -158 -13 -235 -19 -77 -5 -186 -15 -243
-22 -83 -10 -108 -9 -127 1 -13 7 -22 17 -19 22 3 4 1 8 -4 8 -5 0 -14 12 -21
26 -6 15 -14 24 -17 22 -7 -8 60 -118 93 -153 15 -16 28 -32 28 -35 1 -3 7
-16 14 -29 11 -19 12 -64 6 -218 l-7 -193 597 0 c474 0 595 3 589 13 -4 6 -18
26 -30 42 -12 17 -38 63 -58 102 -47 94 -50 161 -10 192 34 27 118 28 189 2
l50 -17 -1 -50 c0 -47 -19 -215 -30 -262 -2 -12 0 -22 4 -22 9 0 20 58 43 233
6 48 12 87 13 87 29 -3 444 -213 560 -284 33 -20 66 -36 75 -36 8 0 12 2 10 4
-15 13 -308 171 -419 226 -221 110 -305 142 -388 148 -87 6 -114 -5 -138 -56
l-17 -35 -13 24 c-7 13 -13 32 -14 42 0 10 115 246 255 525 439 874 452 897
592 1034 78 77 130 116 200 152 66 33 191 71 283 86 41 6 97 16 123 21 63 12
459 12 528 0 30 -6 95 -15 144 -21 160 -21 575 -160 680 -229 l40 -27 7 -149
c8 -193 32 -414 57 -545 5 -25 15 -79 22 -120 6 -41 25 -131 41 -200 16 -69
32 -136 35 -150 3 -14 19 -70 35 -125 16 -55 34 -116 40 -135 44 -155 188
-514 188 -469 0 6 -44 117 -65 164 -8 17 -29 73 -48 125 -31 86 -43 124 -91
285 -64 212 -114 448 -166 785 -9 63 -26 313 -34 515 -4 101 9 399 19 445 3
14 26 48 51 75 40 44 75 96 148 218 22 37 132 258 168 337 49 107 78 183 104
268 51 171 151 608 142 618 -3 2 -10 -22 -17 -53z m-3141 -1114 c0 -16 -48
-10 -54 7 -15 38 -7 46 24 24 17 -12 30 -26 30 -31z m100 -19 c12 -8 12 -10
-3 -16 -24 -9 -109 5 -102 17 8 12 86 12 105 -1z m-131 -62 c-1 -24 -5 -54 -9
-68 -6 -18 -8 -7 -9 43 -1 38 3 67 9 67 6 0 10 -19 9 -42z m30 -180 c0 -112
-4 -175 -9 -163 -16 37 -10 345 6 345 2 0 4 -82 3 -182z m2521 -184 c-5 -49
-10 -134 -10 -190 0 -55 -3 -103 -6 -107 -3 -3 -20 3 -37 13 -44 26 -191 85
-312 125 -55 18 -101 37 -102 42 -2 5 32 15 74 22 83 14 224 63 247 87 8 8 19
14 24 14 4 0 35 20 68 44 32 25 60 43 62 42 1 -2 -2 -43 -8 -92z m-2520 -654
c0 -8 26 -69 59 -135 57 -118 58 -121 44 -155 -18 -44 -61 -110 -72 -110 -4 0
-13 26 -19 58 -40 216 -52 419 -21 370 5 -7 9 -20 9 -28z m-240 -960 c0 -6
-11 -32 -25 -59 -20 -40 -30 -50 -57 -55 -30 -5 -319 -32 -618 -56 -69 -6
-163 -15 -210 -20 -151 -17 -184 -17 -188 3 -2 10 -8 14 -15 10 -7 -4 -6 1 2
10 11 15 11 17 -2 17 -8 0 -22 11 -31 25 -9 14 -14 25 -12 25 2 0 13 3 23 6
14 6 16 4 6 -6 -9 -10 -8 -16 4 -29 10 -10 18 -12 20 -5 4 12 50 7 59 -7 13
-21 42 -8 47 21 6 27 27 43 27 20 0 -5 5 -10 11 -10 6 0 9 6 6 14 -4 10 7 16
39 21 67 10 316 33 599 55 77 6 156 14 175 19 50 13 140 13 140 1z m-1037 -97
c-13 -2 -33 -2 -45 0 -13 2 -3 4 22 4 25 0 35 -2 23 -4z"/>
<path d="M4532 3795 c0 -16 2 -22 5 -12 2 9 2 23 0 30 -3 6 -5 -1 -5 -18z"/>
<path d="M4522 3730 c0 -19 2 -27 5 -17 2 9 2 25 0 35 -3 9 -5 1 -5 -18z"/>
<path d="M1308 3622 c-20 -4 -23 -13 -8 -28 6 -6 4 -19 -5 -38 -8 -15 -13 -32
-10 -37 3 -4 -3 -17 -15 -29 -21 -21 -27 -50 -10 -50 6 0 10 6 10 14 0 7 6 19
13 25 8 6 19 30 26 53 7 24 17 48 21 53 12 16 -3 41 -22 37z"/>
<path d="M4495 3585 c-3 -26 -4 -49 -2 -51 3 -3 8 16 12 41 3 26 4 49 2 51 -3
3 -8 -16 -12 -41z"/>
<path d="M7202 3575 c0 -16 4 -43 8 -60 11 -42 11 -1 1 50 -7 34 -9 35 -9 10z"/>
<path d="M315 3570 l-80 -6 75 -1 c41 0 89 3 105 7 26 7 27 8 5 7 -14 0 -61
-4 -105 -7z"/>
<path d="M8043 3535 c0 -22 2 -30 4 -17 2 12 2 30 0 40 -3 9 -5 -1 -4 -23z"/>
<path d="M4481 3494 c0 -11 3 -14 6 -6 3 7 2 16 -1 19 -3 4 -6 -2 -5 -13z"/>
<path d="M2220 3470 c6 -11 13 -20 16 -20 2 0 0 9 -6 20 -6 11 -13 20 -16 20
-2 0 0 -9 6 -20z"/>
<path d="M7221 3464 c0 -11 3 -14 6 -6 3 7 2 16 -1 19 -3 4 -6 -2 -5 -13z"/>
<path d="M4456 3385 c-48 -243 -123 -477 -159 -497 -15 -7 -16 -12 -7 -18 19
-12 -1 -61 -55 -128 -52 -67 -61 -91 -12 -35 17 20 44 50 60 67 15 17 27 37
27 46 0 8 16 60 36 115 19 55 42 124 50 154 8 29 16 56 18 60 9 14 67 303 63
314 -2 6 -11 -29 -21 -78z"/>
<path d="M1230 3436 c0 -9 5 -16 10 -16 6 0 10 4 10 9 0 6 -4 13 -10 16 -5 3
-10 -1 -10 -9z"/>
<path d="M2249 3422 c6 -12 16 -24 22 -28 8 -4 8 -1 0 14 -6 12 -16 24 -22 28
-8 4 -8 1 0 -14z"/>
<path d="M7232 3410 c0 -19 2 -27 5 -17 2 9 2 25 0 35 -3 9 -5 1 -5 -18z"/>
<path d="M2789 3415 c19 -8 36 -13 39 -10 9 8 -3 15 -39 20 l-34 6 34 -16z"/>
<path d="M2885 3350 c10 -11 23 -20 28 -20 6 0 2 9 -8 20 -10 11 -23 20 -28
20 -6 0 -2 -9 8 -20z"/>
<path d="M6255 3320 c4 -25 22 -124 41 -220 18 -96 38 -200 44 -230 5 -30 21
-111 34 -180 46 -239 99 -517 116 -615 5 -27 21 -115 35 -195 14 -80 30 -170
35 -200 5 -30 18 -104 29 -165 11 -60 26 -155 35 -210 8 -55 22 -140 31 -190
20 -118 55 -352 65 -440 23 -192 49 -452 55 -557 4 -70 11 -118 17 -118 7 0 8
19 4 52 -4 29 -12 109 -17 178 -18 239 -38 416 -65 595 -9 55 -20 132 -26 170
-12 88 -21 147 -47 305 -39 242 -51 316 -66 385 -9 39 -22 107 -30 153 -39
216 -45 253 -60 332 -9 47 -20 108 -25 135 -27 154 -71 386 -79 425 -6 25 -26
131 -46 235 -52 273 -76 389 -82 395 -3 3 -2 -15 2 -40z"/>
<path d="M4562 3293 c-5 -15 -20 -53 -32 -83 -12 -30 -17 -50 -12 -45 12 14
64 146 59 152 -3 2 -9 -9 -15 -24z"/>
<path d="M293 3283 c9 -2 25 -2 35 0 9 3 1 5 -18 5 -19 0 -27 -2 -17 -5z"/>
<path d="M6854 3245 c4 -22 11 -62 16 -90 37 -188 74 -374 106 -520 20 -93 39
-190 44 -215 12 -70 28 -147 51 -240 20 -85 23 -99 54 -240 16 -71 80 -298
109 -385 8 -22 26 -82 42 -134 16 -51 30 -89 32 -83 1 5 -16 70 -38 143 -102
331 -115 378 -156 564 -14 66 -29 136 -34 155 -7 32 -40 193 -54 265 -3 17
-10 53 -16 80 -6 28 -13 64 -16 80 -2 17 -15 75 -29 130 -26 110 -32 140 -76
364 -16 85 -32 157 -35 160 -3 4 -3 -12 0 -34z"/>
<path d="M318 3153 c18 -2 45 -2 60 0 15 2 0 4 -33 4 -33 0 -45 -2 -27 -4z"/>
<path d="M4460 3063 c-24 -49 -61 -114 -82 -146 -47 -72 -63 -101 -51 -94 24
15 190 313 180 323 -2 2 -23 -35 -47 -83z"/>
<path d="M18 3133 c12 -2 32 -2 45 0 12 2 2 4 -23 4 -25 0 -35 -2 -22 -4z"/>
<path d="M5370 3088 c-1 -7 -5 -58 -10 -113 -36 -382 -51 -1135 -30 -1505 19
-338 31 -504 46 -655 8 -82 19 -197 24 -255 6 -58 15 -127 20 -155 8 -41 34
-212 57 -372 3 -18 9 -33 15 -33 5 0 7 4 4 8 -3 5 -13 67 -22 138 -9 71 -20
154 -24 184 -10 71 -47 396 -59 525 -60 605 -69 1448 -21 2055 6 74 13 147 15
163 3 15 0 27 -5 27 -6 0 -10 -6 -10 -12z"/>
<path d="M7784 3005 c0 -49 1 -71 3 -48 2 23 2 64 0 90 -2 26 -3 8 -3 -42z"/>
<path d="M2558 3045 c6 -11 28 -36 49 -55 37 -34 24 -16 -32 45 -16 17 -23 21
-17 10z"/>
<path d="M122 2993 c27 -2 69 -2 96 0 26 2 4 3 -48 3 -52 0 -74 -1 -48 -3z"/>
<path d="M1873 2940 c0 -25 2 -35 4 -22 2 12 2 32 0 45 -2 12 -4 2 -4 -23z"/>
<path d="M2650 2944 c0 -6 7 -19 15 -30 8 -10 14 -14 14 -9 0 6 -6 19 -14 29
-8 11 -15 15 -15 10z"/>
<path d="M2700 2880 c0 -5 9 -14 20 -20 11 -6 20 -9 20 -8 0 2 -9 11 -20 21
-11 9 -20 13 -20 7z"/>
<path d="M338 2873 c12 -2 32 -2 45 0 12 2 2 4 -23 4 -25 0 -35 -2 -22 -4z"/>
<path d="M95 2860 l-100 -6 110 -1 c61 -1 121 3 135 7 22 7 21 8 -10 7 -19 0
-80 -4 -135 -7z"/>
<path d="M4205 2845 c-67 -30 -189 -68 -305 -94 -52 -12 -122 -28 -155 -36
l-60 -14 50 5 c114 12 410 89 440 116 5 4 15 8 22 8 7 0 27 9 45 20 43 26 25
24 -37 -5z"/>
<path d="M2523 2795 c0 -22 2 -30 4 -17 2 12 2 30 0 40 -3 9 -5 -1 -4 -23z"/>
<path d="M2775 2800 c10 -11 20 -20 23 -20 3 0 -3 9 -13 20 -10 11 -20 20 -23
20 -3 0 3 -9 13 -20z"/>
<path d="M788 2763 c17 -2 47 -2 65 0 17 2 3 4 -33 4 -36 0 -50 -2 -32 -4z"/>
<path d="M2853 2726 c26 -25 50 -46 54 -46 10 0 -19 30 -61 62 -40 30 -40 30
7 -16z"/>
<path d="M125 2720 c-66 -6 -64 -7 40 -8 61 -1 117 3 125 8 17 11 -47 11 -165
0z"/>
<path d="M2541 2673 c-1 -24 17 -78 24 -71 3 2 -1 24 -9 49 -9 27 -14 36 -15
22z"/>
<path d="M3440 2679 c-41 -4 -95 -10 -120 -13 -25 -3 -115 -6 -200 -7 -139 -1
-148 -3 -85 -10 66 -8 175 -3 428 20 54 5 101 12 104 15 8 7 -28 6 -127 -5z"/>
<path d="M4149 2633 l-24 -28 28 24 c25 23 32 31 24 31 -2 0 -14 -12 -28 -27z"/>
<path d="M7391 2639 c-1 -14 3 -39 8 -55 5 -16 14 -76 21 -134 19 -166 30
-212 25 -110 -6 143 -14 211 -25 225 -6 7 -15 32 -19 56 -6 29 -9 35 -10 18z"/>
<path d="M40 2580 c-45 -7 -45 -7 15 -8 33 0 98 3 145 7 l85 8 -100 0 c-55 0
-120 -3 -145 -7z"/>
<path d="M2571 2564 c0 -11 3 -14 6 -6 3 7 2 16 -1 19 -3 4 -6 -2 -5 -13z"/>
<path d="M1660 2517 c0 -151 39 -619 61 -730 5 -27 9 -60 9 -75 0 -41 53 -309
58 -294 2 8 -1 39 -7 70 -6 32 -14 71 -17 87 -2 17 -8 45 -11 64 -7 39 11 37
21 -2 9 -37 37 -100 42 -95 2 3 -16 61 -41 129 -59 161 -80 322 -92 712 -3
103 -9 187 -14 187 -5 0 -9 -24 -9 -53z"/>
<path d="M2581 2524 c-2 -34 81 -276 112 -329 20 -33 17 -22 -20 75 -23 63
-58 167 -80 240 -8 24 -11 28 -12 14z"/>
<path d="M4039 2523 c-13 -16 -12 -17 4 -4 9 7 17 15 17 17 0 8 -8 3 -21 -13z"/>
<path d="M3989 2479 c-13 -11 -31 -25 -39 -29 -8 -5 -13 -11 -10 -14 3 -2 23
11 45 29 22 19 37 34 34 35 -3 0 -17 -9 -30 -21z"/>
<path d="M8240 2450 c0 -5 7 -10 15 -10 8 0 15 5 15 10 0 6 -7 10 -15 10 -8 0
-15 -4 -15 -10z"/>
<path d="M197 2443 c24 -2 62 -2 85 0 24 2 5 4 -42 4 -47 0 -66 -2 -43 -4z"/>
<path d="M98 2433 c12 -2 30 -2 40 0 9 3 -1 5 -23 4 -22 0 -30 -2 -17 -4z"/>
<path d="M3835 2365 c-105 -75 -136 -99 -115 -89 46 22 229 157 208 153 -2 0
-43 -29 -93 -64z"/>
<path d="M1033 2373 c15 -2 39 -2 55 0 15 2 2 4 -28 4 -30 0 -43 -2 -27 -4z"/>
<path d="M7964 2355 c26 -19 42 -19 26 0 -7 8 -20 15 -29 15 -13 -1 -13 -3 3
-15z"/>
<path d="M828 2353 c12 -2 30 -2 40 0 9 3 -1 5 -23 4 -22 0 -30 -2 -17 -4z"/>
<path d="M438 2323 c6 -2 18 -2 25 0 6 3 1 5 -13 5 -14 0 -19 -2 -12 -5z"/>
<path d="M7457 2070 c3 -85 7 -157 9 -159 7 -8 2 214 -6 264 -5 30 -6 -11 -3
-105z"/>
<path d="M253 2163 c15 -2 37 -2 50 0 12 2 0 4 -28 4 -27 0 -38 -2 -22 -4z"/>
<path d="M2710 2156 c0 -10 50 -106 55 -106 2 0 -6 23 -19 51 -23 49 -36 69
-36 55z"/>
<path d="M1013 2093 c9 -2 23 -2 30 0 6 3 -1 5 -18 5 -16 0 -22 -2 -12 -5z"/>
<path d="M743 2073 c15 -2 37 -2 50 0 12 2 0 4 -28 4 -27 0 -38 -2 -22 -4z"/>
<path d="M528 2053 c6 -2 18 -2 25 0 6 3 1 5 -13 5 -14 0 -19 -2 -12 -5z"/>
<path d="M248 2033 c12 -2 30 -2 40 0 9 3 -1 5 -23 4 -22 0 -30 -2 -17 -4z"/>
<path d="M148 2023 c12 -2 32 -2 45 0 12 2 2 4 -23 4 -25 0 -35 -2 -22 -4z"/>
<path d="M2780 2014 c1 -16 29 -60 29 -44 0 8 -6 24 -14 34 -8 11 -15 16 -15
10z"/>
<path d="M5911 1984 c0 -11 3 -14 6 -6 3 7 2 16 -1 19 -3 4 -6 -2 -5 -13z"/>
<path d="M1502 1845 c0 -11 4 -31 8 -45 6 -20 8 -21 8 -5 0 11 -4 31 -8 45 -6
20 -8 21 -8 5z"/>
<path d="M2538 1813 c12 -2 30 -2 40 0 9 3 -1 5 -23 4 -22 0 -30 -2 -17 -4z"/>
<path d="M738 1793 c12 -2 32 -2 45 0 12 2 2 4 -23 4 -25 0 -35 -2 -22 -4z"/>
<path d="M1524 1743 c3 -10 10 -38 16 -62 6 -23 14 -41 16 -38 6 6 -25 117
-32 117 -3 0 -3 -8 0 -17z"/>
<path d="M7452 1530 c-7 -69 -19 -172 -27 -230 -8 -58 -18 -124 -21 -148 -3
-23 -9 -40 -15 -37 -5 3 -23 51 -40 106 -17 55 -33 98 -35 96 -6 -5 71 -261
85 -284 10 -15 10 -14 6 7 -11 48 14 56 195 69 91 7 190 16 220 21 30 4 73 7
95 5 22 -2 101 -7 175 -10 74 -4 139 -11 145 -16 22 -21 35 -8 35 36 l0 45
-45 0 c-24 0 -77 -4 -117 -10 -40 -5 -154 -16 -253 -25 -99 -8 -233 -20 -297
-26 -64 -6 -121 -8 -126 -5 -12 7 -8 47 29 326 6 47 9 112 7 145 -3 53 -5 45
-16 -65z m771 -377 c-13 -2 -33 -2 -45 0 -13 2 -3 4 22 4 25 0 35 -2 23 -4z
m-126 -9 c-3 -3 -12 -4 -19 -1 -8 3 -5 6 6 6 11 1 17 -2 13 -5z"/>
<path d="M1561 1614 c0 -11 3 -14 6 -6 3 7 2 16 -1 19 -3 4 -6 -2 -5 -13z"/>
<path d="M1571 1580 c-1 -17 35 -134 72 -232 24 -63 56 -131 107 -228 33 -61
158 -248 173 -257 7 -4 5 2 -3 14 -159 224 -250 405 -328 653 -11 36 -21 58
-21 50z"/>
<path d="M0 1526 c0 -2 9 -6 20 -9 11 -3 18 -1 14 4 -5 9 -34 13 -34 5z"/>
<path d="M1820 1523 c-1 -50 239 -513 266 -513 6 0 5 2 -54 93 -40 63 -121
225 -185 372 -15 33 -27 55 -27 48z"/>
<path d="M63 1485 c10 -16 24 -48 31 -70 8 -22 15 -31 15 -21 1 19 1 19 23 0
24 -21 20 -13 -24 52 -15 23 -35 47 -45 55 -16 13 -16 12 0 -16z"/>
<path d="M1796 1365 c4 -22 11 -47 16 -55 6 -10 7 -1 3 25 -4 22 -11 47 -16
55 -6 10 -7 1 -3 -25z"/>
<path d="M150 1365 c0 -5 9 -23 20 -40 11 -16 20 -25 20 -20 0 6 -9 24 -20 40
-11 17 -20 26 -20 20z"/>
<path d="M190 1284 c0 -11 71 -138 94 -169 64 -84 155 -227 181 -285 16 -36
33 -69 37 -75 14 -16 -28 98 -48 131 -31 51 -118 178 -132 192 -22 24 -67 96
-96 155 -26 53 -36 67 -36 51z"/>
<path d="M1821 1277 c-2 -44 133 -426 151 -427 3 0 -9 35 -26 78 -41 95 -71
183 -101 287 -13 44 -24 72 -24 62z"/>
<path d="M15 1113 c8 -18 18 -33 20 -33 10 0 4 16 -16 40 l-20 25 16 -32z"/>
<path d="M7887 1113 c-15 -14 -6 -24 20 -21 34 4 43 28 11 28 -14 0 -28 -3
-31 -7z"/>
<path d="M7818 1093 c7 -3 16 -2 19 1 4 3 -2 6 -13 5 -11 0 -14 -3 -6 -6z"/>
<path d="M53 1043 c9 -16 20 -51 25 -78 6 -28 18 -75 27 -105 59 -199 69 -262
37 -257 -28 4 -57 29 -87 75 -31 47 -44 57 -20 15 84 -148 242 -388 274 -417
17 -16 19 -15 35 9 16 25 16 30 -15 133 -84 282 -120 370 -236 579 -34 62 -68
102 -40 46z"/>
<path d="M8135 1050 c-38 -4 -128 -13 -200 -19 -71 -7 -215 -20 -320 -30 -131
-12 -192 -14 -197 -6 -16 22 -6 -16 48 -190 192 -614 211 -678 225 -748 l12
-57 81 0 c44 0 164 9 266 20 102 11 193 20 203 20 16 0 17 31 17 510 l0 510
-32 -1 c-18 -1 -64 -5 -103 -9z"/>
<path d="M430 996 c0 -2 8 -10 18 -17 15 -13 16 -12 3 4 -13 16 -21 21 -21 13z"/>
<path d="M2100 992 c0 -6 5 -14 10 -17 6 -4 7 -11 4 -17 -4 -6 -2 -8 4 -4 6 3
13 -2 17 -11 6 -19 55 -60 55 -46 -1 12 -90 106 -90 95z"/>
<path d="M734 862 c-18 -15 -20 -24 -14 -87 l7 -70 1 71 c2 75 15 99 49 92 12
-2 27 -34 53 -110 20 -59 40 -111 45 -115 4 -5 5 1 0 12 -4 11 -20 60 -36 109
-16 48 -34 95 -40 102 -15 19 -40 17 -65 -4z"/>
<path d="M1948 825 c28 -40 94 -113 90 -100 -2 6 -14 34 -27 63 -16 36 -27 49
-32 41 -6 -10 -13 -9 -30 6 l-23 20 22 -30z"/>
<path d="M650 775 c-6 -19 -9 -45 -7 -57 4 -20 4 -19 6 5 0 15 8 41 16 57 9
17 11 30 6 30 -5 0 -15 -16 -21 -35z"/>
<path d="M1313 743 c9 -2 25 -2 35 0 9 3 1 5 -18 5 -19 0 -27 -2 -17 -5z"/>
<path d="M506 725 c4 -8 8 -15 10 -15 2 0 4 7 4 15 0 8 -4 15 -10 15 -5 0 -7
-7 -4 -15z"/>
<path d="M521 685 c0 -21 27 -88 28 -70 0 6 -6 28 -14 50 -8 22 -14 31 -14 20z"/>
<path d="M740 674 c0 -6 7 -19 15 -30 8 -10 14 -14 14 -9 0 6 -6 19 -14 29 -8
11 -15 15 -15 10z"/>
<path d="M634 610 c4 -39 1 -61 -9 -74 -15 -20 -15 -20 -30 0 -8 10 0 -15 19
-56 19 -41 53 -133 75 -205 23 -72 59 -164 81 -205 50 -96 50 -86 0 27 l-39
89 16 61 17 61 -41 89 c-22 48 -51 124 -63 168 -30 107 -31 109 -26 45z"/>
<path d="M550 591 c0 -6 4 -13 10 -16 6 -3 7 1 4 9 -7 18 -14 21 -14 7z"/>
<path d="M4420 193 c0 -16 -7 -63 -15 -106 -18 -92 -17 -87 -7 -87 4 0 14 37
20 83 7 45 15 94 19 110 3 17 1 27 -6 27 -6 0 -11 -12 -11 -27z"/>
<path d="M417 20 c3 -11 9 -20 14 -20 11 0 11 3 3 24 -9 23 -23 20 -17 -4z"/>
</g>
</svg>
